<mxfile host="app.diagrams.net" modified="2023-09-25T13:28:17.294Z" agent="Mozilla/5.0 (Windows NT 10.0; Win64; x64) AppleWebKit/537.36 (KHTML, like Gecko) Chrome/117.0.0.0 Safari/537.36" etag="ilbVAN_57AOd0jH4MGl9" version="21.8.2" type="github">
  <diagram name="第 1 页" id="2vn9aWxagcMAK8qqUG9f">
    <mxGraphModel dx="2261" dy="758" grid="1" gridSize="10" guides="1" tooltips="1" connect="1" arrows="1" fold="1" page="1" pageScale="1" pageWidth="827" pageHeight="1169" math="0" shadow="0">
      <root>
        <mxCell id="0" />
        <mxCell id="1" parent="0" />
        <mxCell id="6vcYFXe-PCnbKD1ETRrQ-1" value="" style="rounded=0;html=1;jettySize=auto;orthogonalLoop=1;fontSize=11;endArrow=block;endFill=0;endSize=8;strokeWidth=1;shadow=0;labelBackgroundColor=none;edgeStyle=orthogonalEdgeStyle;" edge="1" parent="1" source="6vcYFXe-PCnbKD1ETRrQ-2" target="6vcYFXe-PCnbKD1ETRrQ-5">
          <mxGeometry relative="1" as="geometry" />
        </mxCell>
        <mxCell id="6vcYFXe-PCnbKD1ETRrQ-2" value="开始" style="rounded=1;whiteSpace=wrap;html=1;fontSize=12;glass=0;strokeWidth=1;shadow=0;" vertex="1" parent="1">
          <mxGeometry x="160" y="80" width="120" height="40" as="geometry" />
        </mxCell>
        <mxCell id="6vcYFXe-PCnbKD1ETRrQ-3" value="是" style="rounded=0;html=1;jettySize=auto;orthogonalLoop=1;fontSize=11;endArrow=block;endFill=0;endSize=8;strokeWidth=1;shadow=0;labelBackgroundColor=none;edgeStyle=orthogonalEdgeStyle;" edge="1" parent="1" source="6vcYFXe-PCnbKD1ETRrQ-5" target="6vcYFXe-PCnbKD1ETRrQ-11">
          <mxGeometry y="20" relative="1" as="geometry">
            <mxPoint as="offset" />
          </mxGeometry>
        </mxCell>
        <mxCell id="6vcYFXe-PCnbKD1ETRrQ-4" value="否" style="edgeStyle=orthogonalEdgeStyle;rounded=0;html=1;jettySize=auto;orthogonalLoop=1;fontSize=11;endArrow=block;endFill=0;endSize=8;strokeWidth=1;shadow=0;labelBackgroundColor=none;" edge="1" parent="1" source="6vcYFXe-PCnbKD1ETRrQ-5" target="6vcYFXe-PCnbKD1ETRrQ-6">
          <mxGeometry x="-0.2" y="10" relative="1" as="geometry">
            <mxPoint as="offset" />
          </mxGeometry>
        </mxCell>
        <mxCell id="6vcYFXe-PCnbKD1ETRrQ-5" value="是否已登录" style="rhombus;whiteSpace=wrap;html=1;shadow=0;fontFamily=Helvetica;fontSize=12;align=center;strokeWidth=1;spacing=6;spacingTop=-4;" vertex="1" parent="1">
          <mxGeometry x="170" y="170" width="100" height="80" as="geometry" />
        </mxCell>
        <mxCell id="6vcYFXe-PCnbKD1ETRrQ-6" value="登录" style="rounded=1;whiteSpace=wrap;html=1;fontSize=12;glass=0;strokeWidth=1;shadow=0;" vertex="1" parent="1">
          <mxGeometry x="320" y="190" width="120" height="40" as="geometry" />
        </mxCell>
        <mxCell id="6vcYFXe-PCnbKD1ETRrQ-7" value="" style="rounded=0;html=1;jettySize=auto;orthogonalLoop=1;fontSize=11;endArrow=block;endFill=0;endSize=8;strokeWidth=1;shadow=0;labelBackgroundColor=none;edgeStyle=orthogonalEdgeStyle;exitX=0.5;exitY=1;exitDx=0;exitDy=0;" edge="1" parent="1" source="6vcYFXe-PCnbKD1ETRrQ-20" target="6vcYFXe-PCnbKD1ETRrQ-12">
          <mxGeometry x="0.3429" y="20" relative="1" as="geometry">
            <mxPoint as="offset" />
          </mxGeometry>
        </mxCell>
        <mxCell id="6vcYFXe-PCnbKD1ETRrQ-8" value="是" style="edgeStyle=orthogonalEdgeStyle;rounded=0;html=1;jettySize=auto;orthogonalLoop=1;fontSize=11;endArrow=block;endFill=0;endSize=8;strokeWidth=1;shadow=0;labelBackgroundColor=none;exitX=0.5;exitY=1;exitDx=0;exitDy=0;entryX=1;entryY=0.5;entryDx=0;entryDy=0;" edge="1" parent="1" source="6vcYFXe-PCnbKD1ETRrQ-6" target="6vcYFXe-PCnbKD1ETRrQ-11">
          <mxGeometry y="10" relative="1" as="geometry">
            <mxPoint as="offset" />
          </mxGeometry>
        </mxCell>
        <mxCell id="6vcYFXe-PCnbKD1ETRrQ-10" value="" style="edgeStyle=orthogonalEdgeStyle;rounded=0;orthogonalLoop=1;jettySize=auto;html=1;" edge="1" parent="1" source="6vcYFXe-PCnbKD1ETRrQ-11" target="6vcYFXe-PCnbKD1ETRrQ-22">
          <mxGeometry relative="1" as="geometry" />
        </mxCell>
        <mxCell id="6vcYFXe-PCnbKD1ETRrQ-24" value="" style="edgeStyle=orthogonalEdgeStyle;rounded=0;orthogonalLoop=1;jettySize=auto;html=1;" edge="1" parent="1" source="6vcYFXe-PCnbKD1ETRrQ-11" target="6vcYFXe-PCnbKD1ETRrQ-18">
          <mxGeometry relative="1" as="geometry" />
        </mxCell>
        <mxCell id="6vcYFXe-PCnbKD1ETRrQ-11" value="校验成绩管理员角色" style="rhombus;whiteSpace=wrap;html=1;shadow=0;fontFamily=Helvetica;fontSize=12;align=center;strokeWidth=1;spacing=6;spacingTop=-4;" vertex="1" parent="1">
          <mxGeometry x="170" y="290" width="100" height="80" as="geometry" />
        </mxCell>
        <mxCell id="6vcYFXe-PCnbKD1ETRrQ-12" value="结束" style="rounded=1;whiteSpace=wrap;html=1;fontSize=12;glass=0;strokeWidth=1;shadow=0;" vertex="1" parent="1">
          <mxGeometry x="160" y="720" width="120" height="40" as="geometry" />
        </mxCell>
        <mxCell id="6vcYFXe-PCnbKD1ETRrQ-13" value="" style="edgeStyle=orthogonalEdgeStyle;rounded=0;orthogonalLoop=1;jettySize=auto;html=1;" edge="1" parent="1" source="6vcYFXe-PCnbKD1ETRrQ-14" target="6vcYFXe-PCnbKD1ETRrQ-20">
          <mxGeometry relative="1" as="geometry" />
        </mxCell>
        <mxCell id="6vcYFXe-PCnbKD1ETRrQ-14" value="获取该学生、教师信息" style="rounded=1;whiteSpace=wrap;html=1;fontSize=12;glass=0;strokeWidth=1;shadow=0;" vertex="1" parent="1">
          <mxGeometry x="380" y="595" width="120" height="40" as="geometry" />
        </mxCell>
        <mxCell id="6vcYFXe-PCnbKD1ETRrQ-16" value="" style="edgeStyle=orthogonalEdgeStyle;rounded=0;orthogonalLoop=1;jettySize=auto;html=1;" edge="1" parent="1" source="6vcYFXe-PCnbKD1ETRrQ-18" target="6vcYFXe-PCnbKD1ETRrQ-14">
          <mxGeometry relative="1" as="geometry" />
        </mxCell>
        <mxCell id="6vcYFXe-PCnbKD1ETRrQ-17" value="" style="edgeStyle=orthogonalEdgeStyle;rounded=0;orthogonalLoop=1;jettySize=auto;html=1;" edge="1" parent="1" source="6vcYFXe-PCnbKD1ETRrQ-18" target="6vcYFXe-PCnbKD1ETRrQ-20">
          <mxGeometry relative="1" as="geometry" />
        </mxCell>
        <mxCell id="6vcYFXe-PCnbKD1ETRrQ-18" value="是否输入某学生姓名" style="rhombus;whiteSpace=wrap;html=1;shadow=0;fontFamily=Helvetica;fontSize=12;align=center;strokeWidth=1;spacing=6;spacingTop=-4;" vertex="1" parent="1">
          <mxGeometry x="170" y="480" width="100" height="80" as="geometry" />
        </mxCell>
        <mxCell id="6vcYFXe-PCnbKD1ETRrQ-20" value="显示教师、学生信息列表" style="rounded=1;whiteSpace=wrap;html=1;fontSize=12;glass=0;strokeWidth=1;shadow=0;" vertex="1" parent="1">
          <mxGeometry x="160" y="580" width="120" height="70" as="geometry" />
        </mxCell>
        <mxCell id="6vcYFXe-PCnbKD1ETRrQ-21" value="&lt;span style=&quot;color: rgb(0, 0, 0); font-family: Helvetica; font-size: 11px; font-style: normal; font-variant-ligatures: normal; font-variant-caps: normal; font-weight: 400; letter-spacing: normal; orphans: 2; text-align: center; text-indent: 0px; text-transform: none; widows: 2; word-spacing: 0px; -webkit-text-stroke-width: 0px; background-color: rgb(251, 251, 251); text-decoration-thickness: initial; text-decoration-style: initial; text-decoration-color: initial; float: none; display: inline !important;&quot;&gt;是&lt;/span&gt;" style="text;whiteSpace=wrap;html=1;" vertex="1" parent="1">
          <mxGeometry x="230" y="370" width="50" height="40" as="geometry" />
        </mxCell>
        <mxCell id="6vcYFXe-PCnbKD1ETRrQ-22" value="判断所属角色显示对应页面" style="whiteSpace=wrap;html=1;shadow=0;strokeWidth=1;spacing=6;spacingTop=-4;" vertex="1" parent="1">
          <mxGeometry x="-20" y="300" width="120" height="60" as="geometry" />
        </mxCell>
        <mxCell id="6vcYFXe-PCnbKD1ETRrQ-23" value="否" style="text;html=1;align=center;verticalAlign=middle;resizable=0;points=[];autosize=1;strokeColor=none;fillColor=none;" vertex="1" parent="1">
          <mxGeometry x="120" y="308" width="40" height="30" as="geometry" />
        </mxCell>
      </root>
    </mxGraphModel>
  </diagram>
</mxfile>
